<svg width="55" height="55" viewBox="0 0 55 55" fill="none" xmlns="http://www.w3.org/2000/svg">
<g clip-path="url(#clip0_408_15)">
<path d="M27.5 55C42.6878 55 55 42.6878 55 27.5C55 12.3122 42.6878 0 27.5 0C12.3122 0 0 12.3122 0 27.5C0 42.6878 12.3122 55 27.5 55Z" fill="#BA2530"/>
<path d="M37.9 24.8H18.1C17.8083 24.8 17.5285 24.9159 17.3222 25.1222C17.1159 25.3285 17 25.6083 17 25.9C17 27.8309 17.5083 29.7277 18.4738 31.3998C19.4392 33.072 20.8278 34.4606 22.5 35.426V36.9C22.5 37.1917 22.6159 37.4715 22.8222 37.6778C23.0285 37.8841 23.3083 38 23.6 38H32.4C32.6917 38 32.9715 37.8841 33.1778 37.6778C33.3841 37.4715 33.5 37.1917 33.5 36.9V35.426C35.1722 34.4606 36.5608 33.072 37.5262 31.3998C38.4917 29.7277 39 27.8309 39 25.9C39 25.6083 38.8841 25.3285 38.6778 25.1222C38.4715 24.9159 38.1917 24.8 37.9 24.8ZM31.905 33.776C31.7219 33.8682 31.5683 34.0098 31.4614 34.1848C31.3545 34.3597 31.2986 34.561 31.3 34.766V35.8H24.7V34.766C24.7014 34.561 24.6455 34.3597 24.5386 34.1848C24.4317 34.0098 24.2781 33.8682 24.095 33.776C22.7936 33.1325 21.6716 32.1771 20.8291 30.9948C19.9865 29.8125 19.4495 28.4401 19.266 27H36.734C36.5505 28.4401 36.0135 29.8125 35.1709 30.9948C34.3284 32.1771 33.2064 33.1325 31.905 33.776ZM24.7 23.7V22.523C24.6984 21.229 24.1934 19.9864 23.292 19.058C23.037 18.8003 22.8356 18.4945 22.6997 18.1584C22.5637 17.8223 22.4959 17.4625 22.5 17.1V16H20.3V17.1C20.2959 18.4016 20.8013 19.6532 21.708 20.587C22.2177 21.1021 22.5025 21.7983 22.5 22.523V23.7H24.7ZM29.1 23.7V22.523C29.0984 21.229 28.5934 19.9864 27.692 19.058C27.437 18.8003 27.2356 18.4945 27.0997 18.1584C26.9637 17.8223 26.8959 17.4625 26.9 17.1V16H24.7V17.1C24.7016 18.394 25.2066 19.6366 26.108 20.565C26.363 20.8227 26.5644 21.1285 26.7003 21.4646C26.8363 21.8007 26.9041 22.1605 26.9 22.523V23.7H29.1ZM33.5 23.7V22.523C33.4984 21.229 32.9934 19.9864 32.092 19.058C31.837 18.8003 31.6356 18.4945 31.4997 18.1584C31.3637 17.8223 31.2959 17.4625 31.3 17.1V16H29.1V17.1C29.1016 18.394 29.6066 19.6366 30.508 20.565C30.763 20.8227 30.9644 21.1285 31.1003 21.4646C31.2363 21.8007 31.3041 22.1605 31.3 22.523V23.7H33.5Z" fill="white"/>
</g>
<defs>
<clipPath id="clip0_408_15">
<rect width="55" height="55" fill="white"/>
</clipPath>
</defs>
</svg>
